# File created by Blade
# Date/Time:  Thu Sep 25 15:31:15 2014
# Frame Rate: 120.000 fps
#------------------------------------------------------
:FULLY-SPECIFIED
:DEGREES
1081
root -20.095394 37.100432 -2.264195 188.699890 -63.841145 19.384150
Spine -33.790936 19.876858 4.747609
Head -98.041599 7.132616 -0.615715
LeftShoulder -16.125394 -6.885047 33.008211
LeftArm 81.364069 -62.097933 -44.744578
LeftForeArm -0.583390 0.000000 16.368745
LeftHand -41.853745 -0.000000 99.496162
LeftHandThumb1 -26.253704 0.000000 33.147579
RightShoulder -26.099896 37.783627 -53.676954
RightArm 74.128394 32.086661 55.491619
RightForeArm -15.176761 -0.000000 30.462979
RightHand -10.652131 -0.000000 -85.750558
RightHandThumb1 -24.326973 -0.000000 -32.862282
LeftUpLeg -22.487904 13.718788 28.998427
LeftLeg 0.293692 -0.000000 -0.000000
LeftFoot 38.778480 29.774741 -5.833849
LeftToeBase 16.150619 -0.000000 -0.000000
RightUpLeg 30.851241 11.962552 -22.445999
RightLeg 34.354760 -0.000000 -0.000000
RightFoot 44.222431 0.303943 -3.233065
RightToeBase 15.940236 -0.000000 -0.000000
1082
root -20.074727 37.158688 -2.248333 188.590832 -63.962793 18.823724
Spine -33.118011 19.780684 4.739525
Head -98.053305 7.275747 -0.636956
LeftShoulder -16.160367 -7.120490 33.257934
LeftArm 81.137680 -61.708974 -44.814611
LeftForeArm -0.507552 -0.000000 16.321889
LeftHand -41.948152 -0.000000 99.513027
LeftHandThumb1 -26.253704 0.000000 33.147579
RightShoulder -26.146558 37.736896 -53.768284
RightArm 74.145002 31.991471 55.161331
RightForeArm -14.902391 -0.000000 29.960688
RightHand -10.676582 -0.000000 -85.873297
RightHandThumb1 -24.326973 -0.000000 -32.862282
LeftUpLeg -20.919825 13.258416 27.838690
LeftLeg 0.068068 -0.000000 -0.000000
LeftFoot 39.040660 29.573647 -6.160848
LeftToeBase 16.377851 -0.000000 -0.000000
RightUpLeg 30.882544 11.330836 -22.439763
RightLeg 34.307549 -0.000000 -0.000000
RightFoot 43.676704 0.581691 -3.058906
RightToeBase 16.676943 -0.000000 -0.000000
1083
root -20.094441 37.216102 -2.242012 188.361750 -64.058319 18.624919
Spine -32.681510 19.737461 4.717716
Head -98.034216 7.521435 -0.589273
LeftShoulder -16.105911 -7.337454 33.690049
LeftArm 80.599332 -61.371941 -44.683424
LeftForeArm -0.538182 0.000000 16.324303
LeftHand -42.100261 -0.000000 99.482623
LeftHandThumb1 -26.253704 0.000000 33.147579
RightShoulder -25.737876 37.170123 -53.194334
RightArm 74.727026 32.415778 54.688346
RightForeArm -14.451513 -0.000000 29.240220
RightHand -10.702064 0.000000 -85.973174
RightHandThumb1 -24.326973 -0.000000 -32.862282
LeftUpLeg -19.652571 13.053390 26.842399
LeftLeg 0.130697 -0.000000 -0.000000
LeftFoot 39.225967 29.228842 -6.884519
LeftToeBase 16.248701 -0.000000 -0.000000
RightUpLeg 30.724897 10.775731 -22.048685
RightLeg 33.929391 -0.000000 -0.000000
RightFoot 44.292163 1.350388 -3.608599
RightToeBase 15.213539 -0.000000 -0.000000
1084
root -20.069200 37.271691 -2.235011 187.959700 -64.308713 18.356119
Spine -32.061103 19.653347 4.838866
Head -98.080955 7.559749 -0.722478
LeftShoulder -16.008623 -7.103224 33.770110
LeftArm 80.317742 -61.296197 -44.499088
LeftForeArm -0.870730 -0.000000 16.226685
LeftHand -42.204674 0.000000 99.580926
LeftHandThumb1 -26.253704 0.000000 33.147579
RightShoulder -25.948517 37.629858 -53.664438
RightArm 74.113028 31.976081 54.050542
RightForeArm -14.351109 -0.000000 28.717668
RightHand -10.737414 -0.000000 -86.055646
RightHandThumb1 -24.326973 -0.000000 -32.862282
LeftUpLeg -18.015419 12.650472 25.798737
LeftLeg -0.121506 -0.000000 0.000000
LeftFoot 39.750347 28.776182 -7.098205
LeftToeBase 16.247868 -0.000000 -0.000000
RightUpLeg 30.612618 10.341910 -21.617602
RightLeg 34.183677 -0.000000 -0.000000
RightFoot 43.831484 1.554307 -2.362567
RightToeBase 15.068013 -0.000000 -0.000000
